<svg width="16" height="11" viewBox="0 0 16 11" fill="none" xmlns="http://www.w3.org/2000/svg">
<path d="M8.00338 7.04107L2.01756 1.05551C1.85314 0.890696 1.6333 0.80003 1.39889 0.80003C1.16436 0.80003 0.94465 0.890696 0.779968 1.05551L0.25574 1.58C0.0907968 1.74455 9.82036e-08 1.96452 9.54084e-08 2.19892C9.26131e-08 2.43333 0.0907968 2.65304 0.25574 2.81772L7.38237 9.94448C7.54758 10.1098 7.76832 10.2004 8.00299 10.1997C8.2387 10.2004 8.45919 10.1099 8.62452 9.94448L15.7443 2.82435C15.9092 2.65967 16 2.43996 16 2.20543C16 1.97102 15.9092 1.75131 15.7443 1.5865L15.22 1.06214C14.8788 0.72094 14.3234 0.72094 13.9823 1.06214L8.00338 7.04107Z" fill="#1A9AE2" fill-opacity="0.5"/>
</svg>
