<svg height="40" viewBox="0 0 512 512" width="40" xmlns="http://www.w3.org/2000/svg"><circle cx="256" cy="256" fill="#55c7a6" r="256"/><path d="M301.864 303.565l79.301 197.506c.038-.015.075-.028.113-.044 54.696-21.961 95.829-63.253 118.744-112.843z" fill="#dc6a2f"/><path d="M169.165 39.868C55.408 85.543.216 214.788 45.891 328.545s174.92 168.949 288.677 123.275l.466-.715-.113.044-79.301-197.506 198.063 84.579c24.425-53.385 27.759-116.298 4.158-175.079C412.168 49.385 282.923-5.807 169.165 39.868z" fill="#dc6a2f"/><path d="M255.621 253.642l167.3 71.443c21.072-45.51 24.059-99.272 3.897-149.486C388.023 78.976 278.245 32.097 181.622 70.892S38.12 219.466 76.915 316.089s148.573 143.502 245.196 104.707c.179-.072.355-.15.534-.222z" fill="#ef8c3d"/><path d="M255.621 253.642l155.175 66.265.122-.383c19.593-42.316 22.37-92.306 3.624-138.996C378.468 90.686 276.394 47.097 186.551 83.17S53.12 221.317 89.192 311.159c36.073 89.843 138.147 133.432 227.99 97.359.167-.067.33-.139.496-.207z" fill="#ffebb4"/><path d="M301.864 303.565l66.844 166.482.113-.043c46.129-18.521 80.904-53.228 100.447-94.951z" fill="#ef8c3d"/><path d="M301.864 303.565l62.235 155.003.105-.041c42.948-17.244 75.326-49.558 93.522-88.404z" fill="#ffebb4"/><circle cx="361.368" cy="214.896" fill="#e33442" r="39.106"/><circle cx="361.368" cy="214.896" fill="#fd4755" r="28.619"/><circle cx="142.893" cy="266.836" fill="#e33442" r="39.106"/><circle cx="142.893" cy="266.836" fill="#fd4755" r="28.619"/><path d="M279.27 312.652c-.168.065-.337.12-.504.188-20.043 8.047-29.767 30.818-21.719 50.861s30.818 29.767 50.861 21.719c.167-.067.328-.144.494-.213z" fill="#e33442"/><path d="M283.177 322.383c-.168.064-.337.12-.504.188-14.668 5.889-21.784 22.554-15.895 37.222s22.554 21.784 37.222 15.895c.167-.067.328-.143.494-.213z" fill="#fd4755"/><path d="M381.499 396.951c-8.047-20.042-30.818-29.766-50.861-21.719l29.142 72.58c20.042-8.048 29.766-30.819 21.719-50.861z" fill="#e33442"/><path d="M371.768 400.858c-5.889-14.668-22.554-21.784-37.222-15.895l21.327 53.117c14.668-5.889 21.784-22.554 15.895-37.222z" fill="#fd4755"/><circle cx="213.939" cy="138.004" fill="#e33442" r="39.106"/><circle cx="213.939" cy="138.004" fill="#fd4755" r="28.619"/><path d="M132.316 154.172c22.175 9.469 30.005 40.905 30.005 40.905s-28.122 16.083-50.297 6.614-30.005-40.905-30.005-40.905 28.122-16.083 50.297-6.614z" fill="#97d729"/><path d="M112.024 201.691c22.175 9.469 50.297-6.614 50.297-6.614l-80.302-34.291s7.83 31.436 30.005 40.905z" fill="#82bd1c"/><path d="M183.617 328.538c22.376-8.984 50.141 7.708 50.141 7.708s-8.513 31.258-30.889 40.242-50.141-7.708-50.141-7.708 8.513-31.258 30.889-40.242z" fill="#97d729"/><path d="M202.869 376.488c22.376-8.984 30.889-40.242 30.889-40.242l-81.03 32.534s27.765 16.692 50.141 7.708z" fill="#82bd1c"/><g><path d="M301.713 201.682c-9.469 22.175-40.905 30.005-40.905 30.005s-16.083-28.122-6.614-50.297 40.905-30.005 40.905-30.005 16.083 28.123 6.614 50.297z" fill="#97d729"/><path d="M254.194 181.39c-9.469 22.175 6.614 50.297 6.614 50.297l34.291-80.302c0 .001-31.436 7.831-40.905 30.005z" fill="#82bd1c"/></g><g fill="none" stroke="#fff" stroke-miterlimit="10" stroke-width="14.599"><circle cx="191.156" cy="266.766" r="30.013"/><circle cx="323.407" cy="120.35" r="30.013"/><circle cx="388.679" cy="264.508" r="23.154"/><circle cx="399.26" cy="389.82" r="23.154"/></g><path d="M198.006 202.994l21.08-8.473 8.472 21.08-21.08 8.472zM115.683 329.418l22.624-9.093 9.093 22.624-22.624 9.093zM336.742 340.358l20.786-8.355 8.354 20.785-20.785 8.355zM366.732 147.411l19.865-7.984 7.985 19.865-19.865 7.984z" fill="#965028"/></svg>