<svg width="32" height="32" viewBox="0 0 32 32" fill="none" xmlns="http://www.w3.org/2000/svg">
<path d="M16 0C7.19006 0 0 7.19056 0 16C0 24.8099 7.19056 32 16 32C24.8099 32 32 24.8094 32 16C32 7.19006 24.8094 0 16 0ZM16 30.125C8.21144 30.125 1.875 23.7886 1.875 16C1.875 8.21144 8.21144 1.875 16 1.875C23.7886 1.875 30.125 8.21144 30.125 16C30.125 23.7886 23.7886 30.125 16 30.125Z" fill="#6BCBF3" fill-opacity="0.5"/>
<path d="M20.3438 25.3991L21.9675 24.4616L22.905 26.0853L21.2812 27.0228L20.3438 25.3991Z" fill="#6BCBF3" fill-opacity="0.5"/>
<path d="M9.09424 5.91397L10.718 4.97647L11.6555 6.60022L10.0317 7.53772L9.09424 5.91397Z" fill="#6BCBF3" fill-opacity="0.5"/>
<path d="M4.97656 21.2812L6.60031 20.3438L7.53781 21.9675L5.91406 22.905L4.97656 21.2812Z" fill="#6BCBF3" fill-opacity="0.5"/>
<path d="M24.4609 10.0316L26.0847 9.09405L27.0222 10.7178L25.3984 11.6553L24.4609 10.0316Z" fill="#6BCBF3" fill-opacity="0.5"/>
<path d="M9.09375 26.086L10.0313 24.4623L11.655 25.3998L10.7175 27.0235L9.09375 26.086Z" fill="#6BCBF3" fill-opacity="0.5"/>
<path d="M20.3447 6.6008L21.2822 4.97705L22.906 5.91455L21.9685 7.5383L20.3447 6.6008Z" fill="#6BCBF3" fill-opacity="0.5"/>
<path d="M4.97607 10.7183L5.91357 9.09457L7.53732 10.0321L6.59982 11.6558L4.97607 10.7183Z" fill="#6BCBF3" fill-opacity="0.5"/>
<path d="M24.4619 21.9689L25.3994 20.3452L27.0231 21.2827L26.0857 22.9064L24.4619 21.9689Z" fill="#6BCBF3" fill-opacity="0.5"/>
<path d="M15.0625 26.3125H16.9375V28.1875H15.0625V26.3125Z" fill="#6BCBF3" fill-opacity="0.5"/>
<path d="M3.8125 15.0625H5.6875V16.9375H3.8125V15.0625Z" fill="#6BCBF3" fill-opacity="0.5"/>
<path d="M26.3125 15.0625H28.1875V16.9375H26.3125V15.0625Z" fill="#6BCBF3" fill-opacity="0.5"/>
<path d="M22.5625 15.0625H16.9375V3.75H15.0625V15.0625H13.1875V16.9375H15.0625V18.8125H16.9375V16.9375H22.5625V15.0625Z" fill="#6BCBF3" fill-opacity="0.5"/>
</svg>
